<svg width="248" height="61" viewBox="0 0 248 61" fill="none" xmlns="http://www.w3.org/2000/svg">
<circle cx="30.7344" cy="30.3877" r="28.9196" stroke="#EEFE34" stroke-width="2.16084"/>
<circle cx="30.7348" cy="30.3881" r="24.4225" stroke="#EEFE34" stroke-width="0.720279"/>
<path d="M21.1691 43.4312H12.9082L30.7343 17.3442L48.1256 43.4312H40.2995L30.7343 29.5182L21.1691 43.4312Z" fill="#EEFE34"/>
<path d="M70.3916 35.6904V13.1943L84.6284 26.6703L98.6477 13.1943V35.6904H92.0184V26.6703L84.6284 33.6256L76.8036 26.6703V35.6904H70.3916Z" fill="#EEFE34"/>
<path d="M129.698 13.0908H106.224V35.4224H129.698V30.5446H112.702V26.6575H126.954V21.7035H112.702V17.7402H129.698V13.0908Z" fill="#EEFE34"/>
<path d="M138.691 35.4224V12.8623H153.932C153.932 12.8623 157.209 13.0268 158.825 14.1669C160.83 15.5814 162.01 17.4095 161.902 19.6445C161.716 23.5262 157.779 24.9989 157.779 24.9989L164.518 35.4224H157.779L149.747 23.1218H152.732C152.732 23.1218 155.76 23.6424 155.594 20.1984C155.464 17.5075 152.732 17.7402 152.732 17.7402H145.018V35.4224H138.691Z" fill="#EEFE34"/>
<path d="M177.766 35.3267H170.766L185.766 12.8267L200.766 35.3267H193.766L185.766 23.8267L177.766 35.3267Z" fill="#EEFE34"/>
<path d="M213.266 35.3267H206.766V13.3267H213.266V23.3267L224.266 13.3267H232.266L221.266 24.3267L232.266 35.3267H224.266L213.266 24.3267V35.3267Z" fill="#EEFE34"/>
<path d="M247.766 35.8267H241.266V13.3267H247.766V35.8267Z" fill="#EEFE34"/>
<path d="M140.591 45.6406C140.454 45.6406 140.324 45.6146 140.2 45.5625C140.08 45.5072 139.974 45.4355 139.883 45.3477C139.792 45.2565 139.72 45.1507 139.668 45.0303C139.616 44.9066 139.59 44.7764 139.59 44.6396V42.6377C139.59 42.501 139.616 42.3724 139.668 42.252C139.72 42.1283 139.792 42.0225 139.883 41.9346C139.974 41.8434 140.08 41.7718 140.2 41.7197C140.324 41.6644 140.454 41.6367 140.591 41.6367H143.989C144.126 41.6367 144.255 41.6644 144.375 41.7197C144.499 41.7718 144.606 41.8434 144.697 41.9346C144.788 42.0225 144.86 42.1283 144.912 42.252C144.964 42.3724 144.99 42.501 144.99 42.6377V43.541H143.989V42.6377H140.591V44.6396H143.989C144.126 44.6396 144.255 44.6657 144.375 44.7178C144.499 44.7699 144.606 44.8415 144.697 44.9326C144.788 45.0238 144.86 45.1312 144.912 45.2549C144.964 45.3753 144.99 45.5039 144.99 45.6406V47.6377C144.99 47.7744 144.964 47.9046 144.912 48.0283C144.86 48.1488 144.788 48.2546 144.697 48.3457C144.606 48.4368 144.499 48.5085 144.375 48.5605C144.255 48.6126 144.126 48.6387 143.989 48.6387H140.493C140.356 48.6387 140.226 48.6126 140.103 48.5605C139.982 48.5085 139.876 48.4368 139.785 48.3457C139.694 48.2546 139.622 48.1488 139.57 48.0283C139.518 47.9046 139.492 47.7744 139.492 47.6377V46.7393H140.493V47.6377H143.989V45.6406H140.591ZM158.798 47.6377C158.798 47.7744 158.772 47.9046 158.72 48.0283C158.668 48.1488 158.596 48.2546 158.505 48.3457C158.414 48.4368 158.306 48.5085 158.183 48.5605C158.062 48.6126 157.934 48.6387 157.797 48.6387H153.798C153.661 48.6387 153.531 48.6126 153.407 48.5605C153.287 48.5085 153.181 48.4368 153.09 48.3457C152.999 48.2546 152.927 48.1488 152.875 48.0283C152.823 47.9046 152.797 47.7744 152.797 47.6377V42.6377C152.797 42.501 152.823 42.3724 152.875 42.252C152.927 42.1283 152.999 42.0225 153.09 41.9346C153.181 41.8434 153.287 41.7718 153.407 41.7197C153.531 41.6644 153.661 41.6367 153.798 41.6367H157.797C157.934 41.6367 158.062 41.6644 158.183 41.7197C158.306 41.7718 158.414 41.8434 158.505 41.9346C158.596 42.0225 158.668 42.1283 158.72 42.252C158.772 42.3724 158.798 42.501 158.798 42.6377V47.6377ZM153.798 42.6377V47.6377H157.797V42.6377H153.798ZM167.601 41.6367V47.6377H171.199V48.6387H166.6V41.6367H167.601ZM178.4 41.6367H179.401V47.6377H183.4V41.6367H184.401V47.6377C184.401 47.7744 184.375 47.9046 184.323 48.0283C184.271 48.1488 184.2 48.2546 184.108 48.3457C184.017 48.4368 183.91 48.5085 183.786 48.5605C183.666 48.6126 183.537 48.6387 183.4 48.6387H179.401C179.265 48.6387 179.134 48.6126 179.011 48.5605C178.89 48.5085 178.785 48.4368 178.693 48.3457C178.602 48.2546 178.531 48.1488 178.479 48.0283C178.426 47.9046 178.4 47.7744 178.4 47.6377V41.6367ZM191.603 41.6367H197.203V42.6377H194.903V48.6387H193.902V42.6377H191.603V41.6367ZM205.405 41.6367V48.6387H204.404V41.6367H205.405ZM219.208 47.6377C219.208 47.7744 219.182 47.9046 219.13 48.0283C219.078 48.1488 219.006 48.2546 218.915 48.3457C218.824 48.4368 218.716 48.5085 218.593 48.5605C218.472 48.6126 218.344 48.6387 218.207 48.6387H214.208C214.071 48.6387 213.941 48.6126 213.817 48.5605C213.697 48.5085 213.591 48.4368 213.5 48.3457C213.409 48.2546 213.337 48.1488 213.285 48.0283C213.233 47.9046 213.207 47.7744 213.207 47.6377V42.6377C213.207 42.501 213.233 42.3724 213.285 42.252C213.337 42.1283 213.409 42.0225 213.5 41.9346C213.591 41.8434 213.697 41.7718 213.817 41.7197C213.941 41.6644 214.071 41.6367 214.208 41.6367H218.207C218.344 41.6367 218.472 41.6644 218.593 41.7197C218.716 41.7718 218.824 41.8434 218.915 41.9346C219.006 42.0225 219.078 42.1283 219.13 42.252C219.182 42.3724 219.208 42.501 219.208 42.6377V47.6377ZM214.208 42.6377V47.6377H218.207V42.6377H214.208ZM228.011 48.6387H227.01V41.6367H228.011L232.22 47.0664V41.6367H233.221V48.6387H232.22L228.011 43.209V48.6387ZM242.019 45.6406C241.882 45.6406 241.752 45.6146 241.628 45.5625C241.507 45.5072 241.402 45.4355 241.311 45.3477C241.219 45.2565 241.148 45.1507 241.096 45.0303C241.044 44.9066 241.018 44.7764 241.018 44.6396V42.6377C241.018 42.501 241.044 42.3724 241.096 42.252C241.148 42.1283 241.219 42.0225 241.311 41.9346C241.402 41.8434 241.507 41.7718 241.628 41.7197C241.752 41.6644 241.882 41.6367 242.019 41.6367H245.417C245.554 41.6367 245.682 41.6644 245.803 41.7197C245.926 41.7718 246.034 41.8434 246.125 41.9346C246.216 42.0225 246.288 42.1283 246.34 42.252C246.392 42.3724 246.418 42.501 246.418 42.6377V43.541H245.417V42.6377H242.019V44.6396H245.417C245.554 44.6396 245.682 44.6657 245.803 44.7178C245.926 44.7699 246.034 44.8415 246.125 44.9326C246.216 45.0238 246.288 45.1312 246.34 45.2549C246.392 45.3753 246.418 45.5039 246.418 45.6406V47.6377C246.418 47.7744 246.392 47.9046 246.34 48.0283C246.288 48.1488 246.216 48.2546 246.125 48.3457C246.034 48.4368 245.926 48.5085 245.803 48.5605C245.682 48.6126 245.554 48.6387 245.417 48.6387H241.921C241.784 48.6387 241.654 48.6126 241.53 48.5605C241.41 48.5085 241.304 48.4368 241.213 48.3457C241.122 48.2546 241.05 48.1488 240.998 48.0283C240.946 47.9046 240.92 47.7744 240.92 47.6377V46.7393H241.921V47.6377H245.417V45.6406H242.019Z" fill="#EEFE34"/>
<path d="M140.2 45.5625L140.096 45.7898L140.103 45.7929L140.2 45.5625ZM139.883 45.3477L139.706 45.5245L139.709 45.5276L139.883 45.3477ZM139.668 45.0303L139.438 45.1273L139.439 45.1295L139.668 45.0303ZM139.668 42.252L139.897 42.3512L139.898 42.349L139.668 42.252ZM139.883 41.9346L140.056 42.1146L140.06 42.1113L139.883 41.9346ZM140.2 41.7197L140.299 41.9492L140.302 41.9479L140.2 41.7197ZM144.375 41.7197L144.271 41.947L144.278 41.9501L144.375 41.7197ZM144.697 41.9346L144.52 42.1114L144.524 42.1145L144.697 41.9346ZM144.912 42.252L144.682 42.349L144.683 42.3512L144.912 42.252ZM144.99 43.541V43.791H145.24V43.541H144.99ZM143.989 43.541H143.739V43.791H143.989V43.541ZM143.989 42.6377H144.239V42.3877H143.989V42.6377ZM140.591 42.6377V42.3877H140.341V42.6377H140.591ZM140.591 44.6396H140.341V44.8896H140.591V44.6396ZM144.375 44.7178L144.276 44.9472L144.278 44.9482L144.375 44.7178ZM144.912 45.2549L144.682 45.3519L144.683 45.3541L144.912 45.2549ZM144.912 48.0283L145.142 48.1276L145.143 48.1253L144.912 48.0283ZM144.375 48.5605L144.278 48.3301L144.276 48.3311L144.375 48.5605ZM140.103 48.5605L140.003 48.79L140.006 48.791L140.103 48.5605ZM139.785 48.3457L139.608 48.5225L139.785 48.3457ZM139.57 48.0283L139.34 48.1253L139.341 48.1275L139.57 48.0283ZM139.492 46.7393V46.4893H139.242V46.7393H139.492ZM140.493 46.7393H140.743V46.4893H140.493V46.7393ZM140.493 47.6377H140.243V47.8877H140.493V47.6377ZM143.989 47.6377V47.8877H144.239V47.6377H143.989ZM143.989 45.6406H144.239V45.3906H143.989V45.6406ZM140.591 45.3906C140.487 45.3906 140.39 45.371 140.297 45.3321L140.103 45.7929C140.258 45.8582 140.421 45.8906 140.591 45.8906V45.3906ZM140.305 45.3353C140.208 45.2912 140.126 45.2352 140.056 45.1677L139.709 45.5276C139.822 45.6359 139.951 45.7231 140.096 45.7897L140.305 45.3353ZM140.06 45.1709C139.991 45.1024 139.937 45.0231 139.897 44.931L139.439 45.1295C139.503 45.2784 139.592 45.4106 139.706 45.5244L140.06 45.1709ZM139.898 44.9333C139.859 44.8409 139.84 44.7437 139.84 44.6396H139.34C139.34 44.8091 139.372 44.9723 139.438 45.1273L139.898 44.9333ZM139.84 44.6396V42.6377H139.34V44.6396H139.84ZM139.84 42.6377C139.84 42.5336 139.859 42.439 139.897 42.3512L139.439 42.1527C139.372 42.3058 139.34 42.4683 139.34 42.6377H139.84ZM139.898 42.349C139.938 42.2546 139.991 42.1775 140.056 42.1145L139.709 41.7546C139.592 41.8674 139.502 42.0019 139.438 42.1549L139.898 42.349ZM140.06 42.1113C140.128 42.0429 140.207 41.989 140.299 41.9492L140.101 41.4903C139.952 41.5546 139.82 41.6439 139.706 41.7578L140.06 42.1113ZM140.302 41.9479C140.394 41.9071 140.489 41.8867 140.591 41.8867V41.3867C140.419 41.3867 140.254 41.4217 140.098 41.4915L140.302 41.9479ZM140.591 41.8867H143.989V41.3867H140.591V41.8867ZM143.989 41.8867C144.091 41.8867 144.184 41.9071 144.271 41.9469L144.479 41.4926C144.325 41.4217 144.161 41.3867 143.989 41.3867V41.8867ZM144.278 41.9501C144.373 41.9902 144.453 42.044 144.52 42.1113L144.874 41.7578C144.759 41.6428 144.624 41.5534 144.472 41.4893L144.278 41.9501ZM144.524 42.1145C144.589 42.1775 144.642 42.2546 144.682 42.349L145.143 42.1549C145.078 42.0019 144.988 41.8674 144.871 41.7546L144.524 42.1145ZM144.683 42.3512C144.721 42.439 144.74 42.5336 144.74 42.6377H145.24C145.24 42.4683 145.208 42.3058 145.142 42.1527L144.683 42.3512ZM144.74 42.6377V43.541H145.24V42.6377H144.74ZM144.99 43.291H143.989V43.791H144.99V43.291ZM144.239 43.541V42.6377H143.739V43.541H144.239ZM143.989 42.3877H140.591V42.8877H143.989V42.3877ZM140.341 42.6377V44.6396H140.841V42.6377H140.341ZM140.591 44.8896H143.989V44.3896H140.591V44.8896ZM143.989 44.8896C144.093 44.8896 144.188 44.9093 144.276 44.9472L144.474 44.4883C144.321 44.4221 144.159 44.3896 143.989 44.3896V44.8896ZM144.278 44.9482C144.373 44.9882 144.453 45.0421 144.52 45.1094L144.874 44.7558C144.759 44.6409 144.624 44.5515 144.472 44.4874L144.278 44.9482ZM144.52 45.1094C144.588 45.1767 144.642 45.2568 144.682 45.3519L145.143 45.1579C145.078 45.0056 144.989 44.8708 144.874 44.7558L144.52 45.1094ZM144.683 45.3541C144.721 45.4419 144.74 45.5366 144.74 45.6406H145.24C145.24 45.4712 145.208 45.3087 145.142 45.1557L144.683 45.3541ZM144.74 45.6406V47.6377H145.24V45.6406H144.74ZM144.74 47.6377C144.74 47.7417 144.721 47.8389 144.682 47.9313L145.143 48.1253C145.208 47.9703 145.24 47.8071 145.24 47.6377H144.74ZM144.683 47.9291C144.643 48.0211 144.589 48.1005 144.52 48.1689L144.874 48.5225C144.988 48.4086 145.077 48.2764 145.142 48.1275L144.683 47.9291ZM144.52 48.1689C144.453 48.2363 144.373 48.2901 144.278 48.3301L144.472 48.791C144.624 48.7268 144.759 48.6374 144.874 48.5225L144.52 48.1689ZM144.276 48.3311C144.188 48.3691 144.093 48.3887 143.989 48.3887V48.8887C144.159 48.8887 144.321 48.8562 144.474 48.79L144.276 48.3311ZM143.989 48.3887H140.493V48.8887H143.989V48.3887ZM140.493 48.3887C140.389 48.3887 140.292 48.369 140.2 48.3301L140.006 48.791C140.161 48.8562 140.324 48.8887 140.493 48.8887V48.3887ZM140.202 48.3311C140.11 48.2913 140.03 48.2374 139.962 48.1689L139.608 48.5225C139.722 48.6363 139.854 48.7256 140.003 48.79L140.202 48.3311ZM139.962 48.1689C139.893 48.1005 139.84 48.0211 139.8 47.9291L139.341 48.1275C139.405 48.2764 139.495 48.4086 139.608 48.5225L139.962 48.1689ZM139.801 47.9313C139.762 47.8389 139.742 47.7417 139.742 47.6377H139.242C139.242 47.8071 139.275 47.9703 139.34 48.1253L139.801 47.9313ZM139.742 47.6377V46.7393H139.242V47.6377H139.742ZM139.492 46.9893H140.493V46.4893H139.492V46.9893ZM140.243 46.7393V47.6377H140.743V46.7393H140.243ZM140.493 47.8877H143.989V47.3877H140.493V47.8877ZM144.239 47.6377V45.6406H143.739V47.6377H144.239ZM143.989 45.3906H140.591V45.8906H143.989V45.3906ZM158.72 48.0283L158.949 48.1276L158.95 48.1253L158.72 48.0283ZM158.183 48.5605L158.086 48.3301L158.083 48.3311L158.183 48.5605ZM153.407 48.5605L153.308 48.79L153.31 48.791L153.407 48.5605ZM153.09 48.3457L152.913 48.5225L153.09 48.3457ZM152.875 48.0283L152.645 48.1253L152.646 48.1275L152.875 48.0283ZM152.875 42.252L153.104 42.3512L153.105 42.349L152.875 42.252ZM153.09 41.9346L153.263 42.1146L153.267 42.1113L153.09 41.9346ZM153.407 41.7197L153.506 41.9492L153.509 41.9479L153.407 41.7197ZM158.183 41.7197L158.078 41.947L158.086 41.9501L158.183 41.7197ZM158.505 41.9346L158.328 42.1114L158.331 42.1145L158.505 41.9346ZM158.72 42.252L158.489 42.349L158.49 42.3512L158.72 42.252ZM153.798 42.6377V42.3877H153.548V42.6377H153.798ZM153.798 47.6377H153.548V47.8877H153.798V47.6377ZM157.797 47.6377V47.8877H158.047V47.6377H157.797ZM157.797 42.6377H158.047V42.3877H157.797V42.6377ZM158.548 47.6377C158.548 47.7417 158.528 47.8389 158.489 47.9313L158.95 48.1253C159.015 47.9703 159.048 47.8071 159.048 47.6377H158.548ZM158.49 47.9291C158.45 48.0211 158.397 48.1005 158.328 48.1689L158.682 48.5225C158.796 48.4086 158.885 48.2764 158.949 48.1275L158.49 47.9291ZM158.328 48.1689C158.261 48.2363 158.181 48.2901 158.086 48.3301L158.28 48.791C158.432 48.7268 158.567 48.6374 158.682 48.5225L158.328 48.1689ZM158.083 48.3311C157.996 48.3691 157.901 48.3887 157.797 48.3887V48.8887C157.966 48.8887 158.129 48.8562 158.282 48.79L158.083 48.3311ZM157.797 48.3887H153.798V48.8887H157.797V48.3887ZM153.798 48.3887C153.694 48.3887 153.597 48.369 153.504 48.3301L153.31 48.791C153.465 48.8562 153.628 48.8887 153.798 48.8887V48.3887ZM153.506 48.3311C153.414 48.2913 153.335 48.2374 153.267 48.1689L152.913 48.5225C153.027 48.6363 153.159 48.7256 153.308 48.79L153.506 48.3311ZM153.267 48.1689C153.198 48.1005 153.144 48.0211 153.104 47.9291L152.646 48.1275C152.71 48.2764 152.799 48.4086 152.913 48.5225L153.267 48.1689ZM153.105 47.9313C153.067 47.8389 153.047 47.7417 153.047 47.6377H152.547C152.547 47.8071 152.579 47.9703 152.645 48.1253L153.105 47.9313ZM153.047 47.6377V42.6377H152.547V47.6377H153.047ZM153.047 42.6377C153.047 42.5336 153.066 42.439 153.104 42.3512L152.646 42.1527C152.579 42.3058 152.547 42.4683 152.547 42.6377H153.047ZM153.105 42.349C153.145 42.2546 153.198 42.1775 153.263 42.1145L152.916 41.7546C152.799 41.8674 152.709 42.0019 152.645 42.1549L153.105 42.349ZM153.267 42.1113C153.335 42.0429 153.414 41.989 153.506 41.9492L153.308 41.4903C153.159 41.5546 153.027 41.6439 152.913 41.7578L153.267 42.1113ZM153.509 41.9479C153.601 41.9071 153.696 41.8867 153.798 41.8867V41.3867C153.626 41.3867 153.461 41.4217 153.305 41.4915L153.509 41.9479ZM153.798 41.8867H157.797V41.3867H153.798V41.8867ZM157.797 41.8867C157.899 41.8867 157.992 41.9071 158.078 41.9469L158.287 41.4926C158.133 41.4217 157.968 41.3867 157.797 41.3867V41.8867ZM158.086 41.9501C158.181 41.9902 158.261 42.044 158.328 42.1113L158.682 41.7578C158.567 41.6428 158.432 41.5534 158.28 41.4893L158.086 41.9501ZM158.331 42.1145C158.397 42.1775 158.45 42.2546 158.489 42.349L158.95 42.1549C158.886 42.0019 158.795 41.8674 158.678 41.7546L158.331 42.1145ZM158.49 42.3512C158.528 42.439 158.548 42.5336 158.548 42.6377H159.048C159.048 42.4683 159.015 42.3058 158.949 42.1527L158.49 42.3512ZM158.548 42.6377V47.6377H159.048V42.6377H158.548ZM153.548 42.6377V47.6377H154.048V42.6377H153.548ZM153.798 47.8877H157.797V47.3877H153.798V47.8877ZM158.047 47.6377V42.6377H157.547V47.6377H158.047ZM157.797 42.3877H153.798V42.8877H157.797V42.3877ZM167.601 41.6367H167.851V41.3867H167.601V41.6367ZM167.601 47.6377H167.351V47.8877H167.601V47.6377ZM171.199 47.6377H171.449V47.3877H171.199V47.6377ZM171.199 48.6387V48.8887H171.449V48.6387H171.199ZM166.6 48.6387H166.35V48.8887H166.6V48.6387ZM166.6 41.6367V41.3867H166.35V41.6367H166.6ZM167.351 41.6367V47.6377H167.851V41.6367H167.351ZM167.601 47.8877H171.199V47.3877H167.601V47.8877ZM170.949 47.6377V48.6387H171.449V47.6377H170.949ZM171.199 48.3887H166.6V48.8887H171.199V48.3887ZM166.85 48.6387V41.6367H166.35V48.6387H166.85ZM166.6 41.8867H167.601V41.3867H166.6V41.8867ZM178.4 41.6367V41.3867H178.15V41.6367H178.4ZM179.401 41.6367H179.651V41.3867H179.401V41.6367ZM179.401 47.6377H179.151V47.8877H179.401V47.6377ZM183.4 47.6377V47.8877H183.65V47.6377H183.4ZM183.4 41.6367V41.3867H183.15V41.6367H183.4ZM184.401 41.6367H184.651V41.3867H184.401V41.6367ZM184.323 48.0283L184.553 48.1276L184.554 48.1253L184.323 48.0283ZM183.786 48.5605L183.689 48.3301L183.687 48.3311L183.786 48.5605ZM179.011 48.5605L178.912 48.79L178.914 48.791L179.011 48.5605ZM178.693 48.3457L178.517 48.5225L178.693 48.3457ZM178.479 48.0283L178.248 48.1253L178.249 48.1275L178.479 48.0283ZM178.4 41.8867H179.401V41.3867H178.4V41.8867ZM179.151 41.6367V47.6377H179.651V41.6367H179.151ZM179.401 47.8877H183.4V47.3877H179.401V47.8877ZM183.65 47.6377V41.6367H183.15V47.6377H183.65ZM183.4 41.8867H184.401V41.3867H183.4V41.8867ZM184.151 41.6367V47.6377H184.651V41.6367H184.151ZM184.151 47.6377C184.151 47.7417 184.132 47.8389 184.093 47.9313L184.554 48.1253C184.619 47.9703 184.651 47.8071 184.651 47.6377H184.151ZM184.094 47.9291C184.054 48.0211 184 48.1005 183.932 48.1689L184.285 48.5225C184.399 48.4086 184.488 48.2764 184.553 48.1275L184.094 47.9291ZM183.932 48.1689C183.864 48.2363 183.784 48.2901 183.689 48.3301L183.883 48.791C184.035 48.7268 184.17 48.6374 184.285 48.5225L183.932 48.1689ZM183.687 48.3311C183.599 48.3691 183.504 48.3887 183.4 48.3887V48.8887C183.57 48.8887 183.732 48.8562 183.885 48.79L183.687 48.3311ZM183.4 48.3887H179.401V48.8887H183.4V48.3887ZM179.401 48.3887C179.297 48.3887 179.2 48.369 179.108 48.3301L178.914 48.791C179.069 48.8562 179.232 48.8887 179.401 48.8887V48.3887ZM179.11 48.3311C179.018 48.2913 178.939 48.2374 178.87 48.1689L178.517 48.5225C178.63 48.6363 178.763 48.7256 178.912 48.79L179.11 48.3311ZM178.87 48.1689C178.802 48.1005 178.748 48.0211 178.708 47.9291L178.249 48.1275C178.313 48.2764 178.403 48.4086 178.517 48.5225L178.87 48.1689ZM178.709 47.9313C178.67 47.8389 178.65 47.7417 178.65 47.6377H178.15C178.15 47.8071 178.183 47.9703 178.248 48.1253L178.709 47.9313ZM178.65 47.6377V41.6367H178.15V47.6377H178.65ZM191.603 41.6367V41.3867H191.353V41.6367H191.603ZM197.203 41.6367H197.453V41.3867H197.203V41.6367ZM197.203 42.6377V42.8877H197.453V42.6377H197.203ZM194.903 42.6377V42.3877H194.653V42.6377H194.903ZM194.903 48.6387V48.8887H195.153V48.6387H194.903ZM193.902 48.6387H193.652V48.8887H193.902V48.6387ZM193.902 42.6377H194.152V42.3877H193.902V42.6377ZM191.603 42.6377H191.353V42.8877H191.603V42.6377ZM191.603 41.8867H197.203V41.3867H191.603V41.8867ZM196.953 41.6367V42.6377H197.453V41.6367H196.953ZM197.203 42.3877H194.903V42.8877H197.203V42.3877ZM194.653 42.6377V48.6387H195.153V42.6377H194.653ZM194.903 48.3887H193.902V48.8887H194.903V48.3887ZM194.152 48.6387V42.6377H193.652V48.6387H194.152ZM193.902 42.3877H191.603V42.8877H193.902V42.3877ZM191.853 42.6377V41.6367H191.353V42.6377H191.853ZM205.405 41.6367H205.655V41.3867H205.405V41.6367ZM205.405 48.6387V48.8887H205.655V48.6387H205.405ZM204.404 48.6387H204.154V48.8887H204.404V48.6387ZM204.404 41.6367V41.3867H204.154V41.6367H204.404ZM205.155 41.6367V48.6387H205.655V41.6367H205.155ZM205.405 48.3887H204.404V48.8887H205.405V48.3887ZM204.654 48.6387V41.6367H204.154V48.6387H204.654ZM204.404 41.8867H205.405V41.3867H204.404V41.8867ZM219.13 48.0283L219.359 48.1276L219.36 48.1253L219.13 48.0283ZM218.593 48.5605L218.496 48.3301L218.494 48.3311L218.593 48.5605ZM213.817 48.5605L213.718 48.79L213.72 48.791L213.817 48.5605ZM213.5 48.3457L213.323 48.5225L213.5 48.3457ZM213.285 48.0283L213.055 48.1253L213.056 48.1275L213.285 48.0283ZM213.285 42.252L213.515 42.3512L213.516 42.349L213.285 42.252ZM213.5 41.9346L213.674 42.1146L213.677 42.1113L213.5 41.9346ZM213.817 41.7197L213.917 41.9492L213.919 41.9479L213.817 41.7197ZM218.593 41.7197L218.488 41.947L218.496 41.9501L218.593 41.7197ZM218.915 41.9346L218.738 42.1114L218.742 42.1145L218.915 41.9346ZM219.13 42.252L218.899 42.349L218.9 42.3512L219.13 42.252ZM214.208 42.6377V42.3877H213.958V42.6377H214.208ZM214.208 47.6377H213.958V47.8877H214.208V47.6377ZM218.207 47.6377V47.8877H218.457V47.6377H218.207ZM218.207 42.6377H218.457V42.3877H218.207V42.6377ZM218.958 47.6377C218.958 47.7417 218.938 47.8389 218.899 47.9313L219.36 48.1253C219.426 47.9703 219.458 47.8071 219.458 47.6377H218.958ZM218.9 47.9291C218.861 48.0211 218.807 48.1005 218.738 48.1689L219.092 48.5225C219.206 48.4086 219.295 48.2764 219.359 48.1275L218.9 47.9291ZM218.738 48.1689C218.671 48.2363 218.591 48.2901 218.496 48.3301L218.69 48.791C218.842 48.7268 218.977 48.6374 219.092 48.5225L218.738 48.1689ZM218.494 48.3311C218.406 48.3691 218.311 48.3887 218.207 48.3887V48.8887C218.376 48.8887 218.539 48.8562 218.692 48.79L218.494 48.3311ZM218.207 48.3887H214.208V48.8887H218.207V48.3887ZM214.208 48.3887C214.104 48.3887 214.007 48.369 213.914 48.3301L213.72 48.791C213.875 48.8562 214.039 48.8887 214.208 48.8887V48.3887ZM213.917 48.3311C213.825 48.2913 213.745 48.2374 213.677 48.1689L213.323 48.5225C213.437 48.6363 213.569 48.7256 213.718 48.79L213.917 48.3311ZM213.677 48.1689C213.608 48.1005 213.554 48.0211 213.515 47.9291L213.056 48.1275C213.12 48.2764 213.209 48.4086 213.323 48.5225L213.677 48.1689ZM213.516 47.9313C213.477 47.8389 213.457 47.7417 213.457 47.6377H212.957C212.957 47.8071 212.989 47.9703 213.055 48.1253L213.516 47.9313ZM213.457 47.6377V42.6377H212.957V47.6377H213.457ZM213.457 42.6377C213.457 42.5336 213.477 42.439 213.515 42.3512L213.056 42.1527C212.989 42.3058 212.957 42.4683 212.957 42.6377H213.457ZM213.516 42.349C213.555 42.2546 213.608 42.1775 213.674 42.1145L213.326 41.7546C213.209 41.8674 213.119 42.0019 213.055 42.1549L213.516 42.349ZM213.677 42.1113C213.745 42.0429 213.825 41.989 213.917 41.9492L213.718 41.4903C213.569 41.5546 213.437 41.6439 213.323 41.7578L213.677 42.1113ZM213.919 41.9479C214.011 41.9071 214.106 41.8867 214.208 41.8867V41.3867C214.036 41.3867 213.871 41.4217 213.715 41.4915L213.919 41.9479ZM214.208 41.8867H218.207V41.3867H214.208V41.8867ZM218.207 41.8867C218.309 41.8867 218.402 41.9071 218.488 41.9469L218.697 41.4926C218.543 41.4217 218.379 41.3867 218.207 41.3867V41.8867ZM218.496 41.9501C218.591 41.9902 218.671 42.044 218.738 42.1113L219.092 41.7578C218.977 41.6428 218.842 41.5534 218.69 41.4893L218.496 41.9501ZM218.742 42.1145C218.807 42.1775 218.86 42.2546 218.899 42.349L219.36 42.1549C219.296 42.0019 219.206 41.8674 219.089 41.7546L218.742 42.1145ZM218.9 42.3512C218.938 42.439 218.958 42.5336 218.958 42.6377H219.458C219.458 42.4683 219.426 42.3058 219.359 42.1527L218.9 42.3512ZM218.958 42.6377V47.6377H219.458V42.6377H218.958ZM213.958 42.6377V47.6377H214.458V42.6377H213.958ZM214.208 47.8877H218.207V47.3877H214.208V47.8877ZM218.457 47.6377V42.6377H217.957V47.6377H218.457ZM218.207 42.3877H214.208V42.8877H218.207V42.3877ZM228.011 48.6387V48.8887H228.261V48.6387H228.011ZM227.01 48.6387H226.76V48.8887H227.01V48.6387ZM227.01 41.6367V41.3867H226.76V41.6367H227.01ZM228.011 41.6367L228.208 41.4836L228.133 41.3867H228.011V41.6367ZM232.22 47.0664L232.022 47.2196L232.47 47.797V47.0664H232.22ZM232.22 41.6367V41.3867H231.97V41.6367H232.22ZM233.221 41.6367H233.471V41.3867H233.221V41.6367ZM233.221 48.6387V48.8887H233.471V48.6387H233.221ZM232.22 48.6387L232.022 48.7918L232.097 48.8887H232.22V48.6387ZM228.011 43.209L228.208 43.0558L227.761 42.4784V43.209H228.011ZM228.011 48.3887H227.01V48.8887H228.011V48.3887ZM227.26 48.6387V41.6367H226.76V48.6387H227.26ZM227.01 41.8867H228.011V41.3867H227.01V41.8867ZM227.813 41.7899L232.022 47.2196L232.417 46.9132L228.208 41.4836L227.813 41.7899ZM232.47 47.0664V41.6367H231.97V47.0664H232.47ZM232.22 41.8867H233.221V41.3867H232.22V41.8867ZM232.971 41.6367V48.6387H233.471V41.6367H232.971ZM233.221 48.3887H232.22V48.8887H233.221V48.3887ZM232.417 48.4855L228.208 43.0558L227.813 43.3621L232.022 48.7918L232.417 48.4855ZM227.761 43.209V48.6387H228.261V43.209H227.761ZM241.628 45.5625L241.524 45.7898L241.531 45.7929L241.628 45.5625ZM241.311 45.3477L241.134 45.5245L241.137 45.5276L241.311 45.3477ZM241.096 45.0303L240.865 45.1273L240.866 45.1295L241.096 45.0303ZM241.096 42.252L241.325 42.3512L241.326 42.349L241.096 42.252ZM241.311 41.9346L241.484 42.1146L241.487 42.1113L241.311 41.9346ZM241.628 41.7197L241.727 41.9492L241.73 41.9479L241.628 41.7197ZM245.803 41.7197L245.698 41.947L245.706 41.9501L245.803 41.7197ZM246.125 41.9346L245.948 42.1114L245.951 42.1145L246.125 41.9346ZM246.34 42.252L246.109 42.349L246.11 42.3512L246.34 42.252ZM246.418 43.541V43.791H246.668V43.541H246.418ZM245.417 43.541H245.167V43.791H245.417V43.541ZM245.417 42.6377H245.667V42.3877H245.417V42.6377ZM242.019 42.6377V42.3877H241.769V42.6377H242.019ZM242.019 44.6396H241.769V44.8896H242.019V44.6396ZM245.803 44.7178L245.704 44.9472L245.706 44.9482L245.803 44.7178ZM246.34 45.2549L246.109 45.3519L246.11 45.3541L246.34 45.2549ZM246.34 48.0283L246.569 48.1276L246.57 48.1253L246.34 48.0283ZM245.803 48.5605L245.706 48.3301L245.704 48.3311L245.803 48.5605ZM241.53 48.5605L241.431 48.79L241.433 48.791L241.53 48.5605ZM241.213 48.3457L241.036 48.5225L241.213 48.3457ZM240.998 48.0283L240.768 48.1253L240.769 48.1275L240.998 48.0283ZM240.92 46.7393V46.4893H240.67V46.7393H240.92ZM241.921 46.7393H242.171V46.4893H241.921V46.7393ZM241.921 47.6377H241.671V47.8877H241.921V47.6377ZM245.417 47.6377V47.8877H245.667V47.6377H245.417ZM245.417 45.6406H245.667V45.3906H245.417V45.6406ZM242.019 45.3906C241.915 45.3906 241.817 45.371 241.725 45.3321L241.531 45.7929C241.686 45.8582 241.849 45.8906 242.019 45.8906V45.3906ZM241.732 45.3353C241.636 45.2912 241.554 45.2352 241.484 45.1677L241.137 45.5276C241.249 45.6359 241.379 45.7231 241.524 45.7897L241.732 45.3353ZM241.487 45.1709C241.419 45.1024 241.365 45.0231 241.325 44.931L240.866 45.1295C240.931 45.2784 241.02 45.4106 241.134 45.5244L241.487 45.1709ZM241.326 44.9333C241.287 44.8409 241.268 44.7437 241.268 44.6396H240.768C240.768 44.8091 240.8 44.9723 240.865 45.1273L241.326 44.9333ZM241.268 44.6396V42.6377H240.768V44.6396H241.268ZM241.268 42.6377C241.268 42.5336 241.287 42.439 241.325 42.3512L240.866 42.1527C240.8 42.3058 240.768 42.4683 240.768 42.6377H241.268ZM241.326 42.349C241.366 42.2546 241.419 42.1775 241.484 42.1145L241.137 41.7546C241.02 41.8674 240.93 42.0019 240.865 42.1549L241.326 42.349ZM241.487 42.1113C241.556 42.0429 241.635 41.989 241.727 41.9492L241.529 41.4903C241.38 41.5546 241.248 41.6439 241.134 41.7578L241.487 42.1113ZM241.73 41.9479C241.821 41.9071 241.917 41.8867 242.019 41.8867V41.3867C241.847 41.3867 241.682 41.4217 241.526 41.4915L241.73 41.9479ZM242.019 41.8867H245.417V41.3867H242.019V41.8867ZM245.417 41.8867C245.519 41.8867 245.612 41.9071 245.698 41.9469L245.907 41.4926C245.753 41.4217 245.589 41.3867 245.417 41.3867V41.8867ZM245.706 41.9501C245.801 41.9902 245.881 42.044 245.948 42.1113L246.302 41.7578C246.187 41.6428 246.052 41.5534 245.9 41.4893L245.706 41.9501ZM245.951 42.1145C246.017 42.1775 246.07 42.2546 246.109 42.349L246.57 42.1549C246.506 42.0019 246.416 41.8674 246.299 41.7546L245.951 42.1145ZM246.11 42.3512C246.148 42.439 246.168 42.5336 246.168 42.6377H246.668C246.668 42.4683 246.636 42.3058 246.569 42.1527L246.11 42.3512ZM246.168 42.6377V43.541H246.668V42.6377H246.168ZM246.418 43.291H245.417V43.791H246.418V43.291ZM245.667 43.541V42.6377H245.167V43.541H245.667ZM245.417 42.3877H242.019V42.8877H245.417V42.3877ZM241.769 42.6377V44.6396H242.269V42.6377H241.769ZM242.019 44.8896H245.417V44.3896H242.019V44.8896ZM245.417 44.8896C245.521 44.8896 245.616 44.9093 245.704 44.9472L245.902 44.4883C245.749 44.4221 245.586 44.3896 245.417 44.3896V44.8896ZM245.706 44.9482C245.801 44.9882 245.881 45.0421 245.948 45.1094L246.302 44.7558C246.187 44.6409 246.052 44.5515 245.9 44.4874L245.706 44.9482ZM245.948 45.1094C246.016 45.1767 246.069 45.2568 246.109 45.3519L246.57 45.1579C246.506 45.0056 246.417 44.8708 246.302 44.7558L245.948 45.1094ZM246.11 45.3541C246.148 45.4419 246.168 45.5366 246.168 45.6406H246.668C246.668 45.4712 246.636 45.3087 246.569 45.1557L246.11 45.3541ZM246.168 45.6406V47.6377H246.668V45.6406H246.168ZM246.168 47.6377C246.168 47.7417 246.148 47.8389 246.109 47.9313L246.57 48.1253C246.636 47.9703 246.668 47.8071 246.668 47.6377H246.168ZM246.11 47.9291C246.071 48.0211 246.017 48.1005 245.948 48.1689L246.302 48.5225C246.416 48.4086 246.505 48.2764 246.569 48.1275L246.11 47.9291ZM245.948 48.1689C245.881 48.2363 245.801 48.2901 245.706 48.3301L245.9 48.791C246.052 48.7268 246.187 48.6374 246.302 48.5225L245.948 48.1689ZM245.704 48.3311C245.616 48.3691 245.521 48.3887 245.417 48.3887V48.8887C245.586 48.8887 245.749 48.8562 245.902 48.79L245.704 48.3311ZM245.417 48.3887H241.921V48.8887H245.417V48.3887ZM241.921 48.3887C241.817 48.3887 241.72 48.369 241.627 48.3301L241.433 48.791C241.588 48.8562 241.751 48.8887 241.921 48.8887V48.3887ZM241.63 48.3311C241.537 48.2913 241.458 48.2374 241.39 48.1689L241.036 48.5225C241.15 48.6363 241.282 48.7256 241.431 48.79L241.63 48.3311ZM241.39 48.1689C241.321 48.1005 241.267 48.0211 241.228 47.9291L240.769 48.1275C240.833 48.2764 240.922 48.4086 241.036 48.5225L241.39 48.1689ZM241.228 47.9313C241.19 47.8389 241.17 47.7417 241.17 47.6377H240.67C240.67 47.8071 240.702 47.9703 240.768 48.1253L241.228 47.9313ZM241.17 47.6377V46.7393H240.67V47.6377H241.17ZM240.92 46.9893H241.921V46.4893H240.92V46.9893ZM241.671 46.7393V47.6377H242.171V46.7393H241.671ZM241.921 47.8877H245.417V47.3877H241.921V47.8877ZM245.667 47.6377V45.6406H245.167V47.6377H245.667ZM245.417 45.3906H242.019V45.8906H245.417V45.3906Z" fill="#EEFE34"/>
</svg>
